<?xml version="1.0" encoding="utf-8"?>
<!-- Generator: Adobe Illustrator 26.0.3, SVG Export Plug-In . SVG Version: 6.00 Build 0)  -->
<svg version="1.1" id="Warstwa_1" xmlns="http://www.w3.org/2000/svg" xmlns:xlink="http://www.w3.org/1999/xlink" x="0px" y="0px"
	 viewBox="0 0 1300 1300" style="enable-background:new 0 0 1300 1300;" xml:space="preserve">
<style type="text/css">
	.st0{opacity:0.1;}
	.st1{fill:#4E4E4E;}
	.st2{fill:#636363;}
	.st3{fill:#BFBFBF;}
	.st4{fill:#B2B2B2;}
	.st5{fill:#999999;}
	.st6{fill:none;}
</style>
<g class="st0">
	<g>
		<path class="st1" d="M704.2,595.8c18.1-18.1,36.1-36.1,54.2-54.2V650C740.3,631.9,722.2,613.9,704.2,595.8z"/>
		<path class="st1" d="M812.5,487.5c-18.1,18.1-36.1,36.1-54.2,54.2V433.3C776.4,451.4,794.4,469.4,812.5,487.5z"/>
		<path class="st2" d="M704.2,487.5c-18.1-18.1-36.1-36.1-54.2-54.2h108.3C740.3,451.4,722.2,469.4,704.2,487.5z"/>
		<path class="st3" d="M704.2,487.5c18.1-18.1,36.1-36.1,54.2-54.2v108.3C740.3,523.6,722.2,505.5,704.2,487.5z"/>
		<path class="st3" d="M812.5,595.8c-18.1-18.1-36.1-36.1-54.2-54.2h108.3C848.6,559.7,830.5,577.8,812.5,595.8z"/>
		<path class="st2" d="M812.5,487.5c18.1,18.1,36.1,36.1,54.2,54.2H758.3C776.4,523.6,794.4,505.5,812.5,487.5z"/>
		<path class="st2" d="M704.2,595.8c18.1,18.1,36.1,36.1,54.2,54.2H650C668,631.9,686.1,613.9,704.2,595.8z"/>
		<path class="st2" d="M812.5,595.8c-18.1,18.1-36.1,36.1-54.2,54.2V541.7C776.4,559.7,794.4,577.8,812.5,595.8z"/>
	</g>
	<g>
		<path class="st2" d="M1300,72.2V0h-72.2c-12,12-24.1,24.1-36.1,36.1c-12-12-24.1-24.1-36.1-36.1l0,0l0,0h-72.2v72.2l0,0
			c12,12,24.1,24.1,36.1,36.1c-12,12-24.1,24.1-36.1,36.1l0,0l0,0v72.2h72.2l0,0l0,0c12-12,24.1-24.1,36.1-36.1
			c12,12,24.1,24.1,36.1,36.1h72.2v-72.2l0,0c-12-12-24.1-24.1-36.1-36.1C1275.9,96.3,1287.9,84.3,1300,72.2L1300,72.2z"/>
		<rect x="1155.6" y="69.5" class="st4" width="72.2" height="72.2"/>
	</g>
	<g>
		<path class="st2" d="M433.3,722.2V650h-72.2c-12,12-24.1,24.1-36.1,36.1c-12-12-24.1-24.1-36.1-36.1l0,0l0,0h-72.2v72.2l0,0
			c12,12,24.1,24.1,36.1,36.1c-12,12-24.1,24.1-36.1,36.1l0,0l0,0v72.2h72.2l0,0l0,0c12-12,24.1-24.1,36.1-36.1
			c12,12,24.1,24.1,36.1,36.1h72.2v-72.2l0,0c-12-12-24.1-24.1-36.1-36.1C409.3,746.3,421.3,734.2,433.3,722.2L433.3,722.2z"/>
		<rect x="288.9" y="719.5" class="st4" width="72.2" height="72.2"/>
	</g>
	<g>
		<path class="st3" d="M866.7,939.1v-72.2h-72.2c-12,12-24.1,24.1-36.1,36.1c-12-12-24.1-24.1-36.1-36.1l0,0l0,0H650v72.2l0,0
			c12,12,24.1,24.1,36.1,36.1c-12,12-24.1,24.1-36.1,36.1l0,0l0,0v72.2h72.2l0,0l0,0c12-12,24.1-24.1,36.1-36.1
			c12,12,24.1,24.1,36.1,36.1h72.2v-72.2l0,0c-12-12-24.1-24.1-36.1-36.1C842.6,963.1,854.6,951.1,866.7,939.1L866.7,939.1z"/>
		<rect x="722.2" y="936.4" class="st1" width="72.2" height="72.2"/>
	</g>
	<path class="st3" d="M433.3,433.3L433.3,433.3L433.3,433.3c0-119.7-97-216.7-216.7-216.7l0,0l0,0
		C216.7,336.3,313.7,433.3,433.3,433.3z"/>
	<path class="st1" d="M650,650L650,650L650,650c0-119.7-97-216.7-216.7-216.7l0,0l0,0C433.3,553,530.3,650,650,650z"/>
	<path class="st4" d="M216.7,650L216.7,650c119.7,0,216.7-97,216.7-216.7l0,0l0,0C313.7,433.3,216.7,530.3,216.7,650L216.7,650z"/>
	<g>
		<path class="st1" d="M325,975L325,975c-29.9,0-54.2-24.2-54.2-54.2l0,0c0-29.9,24.2-54.2,54.2-54.2l0,0
			c29.9,0,54.2,24.2,54.2,54.2l0,0C379.2,950.7,354.9,975,325,975z"/>
		<path class="st2" d="M325,945L325,945c-13.4,0-24.2-10.8-24.2-24.2l0,0c0-13.4,10.8-24.2,24.2-24.2l0,0
			c13.4,0,24.2,10.8,24.2,24.2l0,0C349.2,934.2,338.4,945,325,945z"/>
		<path class="st3" d="M325,975c-59.8,0-108.3,48.5-108.3,108.3h216.7C433.3,1023.5,384.8,975,325,975z"/>
	</g>
	<g>
		<path class="st3" d="M975,758.3L975,758.3c-29.9,0-54.2-24.2-54.2-54.2l0,0c0-29.9,24.2-54.2,54.2-54.2l0,0
			c29.9,0,54.2,24.2,54.2,54.2l0,0C1029.2,734.1,1004.9,758.3,975,758.3z"/>
		<path class="st2" d="M975,728.3L975,728.3c-13.4,0-24.2-10.8-24.2-24.2l0,0c0-13.4,10.8-24.2,24.2-24.2l0,0
			c13.4,0,24.2,10.8,24.2,24.2l0,0C999.2,717.5,988.4,728.3,975,728.3z"/>
		<path class="st2" d="M975,758.3c-59.8,0-108.3,48.5-108.3,108.3h216.7C1083.3,806.8,1034.8,758.3,975,758.3z"/>
	</g>
	<g>
		<rect x="866.7" y="866.6" class="st1" width="216.7" height="216.7"/>
		<g>
			<path class="st2" d="M896.3,943c2.7,0,5.4-1.1,7.3-3c1.9-1.9,3-4.6,3-7.3c0-2.7-1.1-5.4-3-7.3c-1.9-1.9-4.6-3-7.3-3
				c-2.7,0-5.4,1.1-7.3,3c-1.9,1.9-3,4.6-3,7.3c0,2.7,1.1,5.4,3,7.3C891,941.9,893.6,943,896.3,943"/>
			<path class="st2" d="M1002.6,943L1002.6,943c5.7,0,10.3-4.6,10.3-10.3s-4.6-10.3-10.3-10.3h0c-5.7,0-10.3,4.6-10.3,10.3
				C992.3,938.3,996.9,943,1002.6,943z"/>
			<path class="st2" d="M949.5,943L949.5,943c5.7,0,10.3-4.6,10.3-10.3s-4.6-10.3-10.3-10.3h0c-5.7,0-10.3,4.6-10.3,10.3
				C939.2,938.3,943.8,943,949.5,943z"/>
			<path class="st2" d="M1055.7,943c2.7,0,5.4-1.1,7.3-3c1.9-1.9,3-4.6,3-7.3c0-2.7-1.1-5.4-3-7.3s-4.6-3-7.3-3
				c-2.7,0-5.4,1.1-7.3,3c-1.9,1.9-3,4.6-3,7.3c0,2.7,1.1,5.4,3,7.3C1050.4,941.9,1053,943,1055.7,943"/>
			<path class="st2" d="M896.3,900.6c2.7,0,5.4-1.1,7.3-3c1.9-1.9,3-4.6,3-7.3c0-2.7-1.1-5.4-3-7.3c-1.9-1.9-4.6-3-7.3-3
				c-2.7,0-5.4,1.1-7.3,3c-1.9,1.9-3,4.6-3,7.3c0,2.7,1.1,5.4,3,7.3C891,899.5,893.6,900.6,896.3,900.6"/>
			<path class="st2" d="M1002.6,900.6L1002.6,900.6c5.7,0,10.3-4.6,10.3-10.3s-4.6-10.3-10.3-10.3h0c-5.7,0-10.3,4.6-10.3,10.3
				S996.9,900.6,1002.6,900.6z"/>
			<path class="st2" d="M949.5,900.6L949.5,900.6c5.7,0,10.3-4.6,10.3-10.3s-4.6-10.3-10.3-10.3h0c-5.7,0-10.3,4.6-10.3,10.3
				S943.8,900.6,949.5,900.6z"/>
			<path class="st2" d="M1055.7,900.6c2.7,0,5.4-1.1,7.3-3c1.9-1.9,3-4.6,3-7.3c0-2.7-1.1-5.4-3-7.3s-4.6-3-7.3-3
				c-2.7,0-5.4,1.1-7.3,3c-1.9,1.9-3,4.6-3,7.3c0,2.7,1.1,5.4,3,7.3S1053,900.6,1055.7,900.6"/>
			<path class="st2" d="M896.3,985.3c2.7,0,5.4-1.1,7.3-3c1.9-1.9,3-4.6,3-7.3c0-2.7-1.1-5.4-3-7.3c-1.9-1.9-4.6-3-7.3-3
				c-2.7,0-5.4,1.1-7.3,3c-1.9,1.9-3,4.6-3,7.3c0,2.7,1.1,5.4,3,7.3C891,984.2,893.6,985.3,896.3,985.3"/>
			<path class="st2" d="M1002.6,985.3L1002.6,985.3c5.7,0,10.3-4.6,10.3-10.3s-4.6-10.3-10.3-10.3h0c-5.7,0-10.3,4.6-10.3,10.3
				S996.9,985.3,1002.6,985.3z"/>
			<path class="st2" d="M949.5,985.3L949.5,985.3c5.7,0,10.3-4.6,10.3-10.3s-4.6-10.3-10.3-10.3h0c-5.7,0-10.3,4.6-10.3,10.3
				S943.8,985.3,949.5,985.3z"/>
			<path class="st2" d="M1055.7,985.3c2.7,0,5.4-1.1,7.3-3c1.9-1.9,3-4.6,3-7.3c0-2.7-1.1-5.4-3-7.3s-4.6-3-7.3-3
				c-2.7,0-5.4,1.1-7.3,3c-1.9,1.9-3,4.6-3,7.3c0,2.7,1.1,5.4,3,7.3C1050.4,984.2,1053,985.3,1055.7,985.3"/>
			<path class="st2" d="M896.3,1027.6c2.7,0,5.4-1.1,7.3-3c1.9-1.9,3-4.6,3-7.3c0-2.7-1.1-5.4-3-7.3c-1.9-1.9-4.6-3-7.3-3
				c-2.7,0-5.4,1.1-7.3,3c-1.9,1.9-3,4.6-3,7.3c0,2.7,1.1,5.4,3,7.3C891,1026.5,893.6,1027.6,896.3,1027.6"/>
			<path class="st2" d="M1002.6,1027.6L1002.6,1027.6c5.7,0,10.3-4.6,10.3-10.3s-4.6-10.3-10.3-10.3h0c-5.7,0-10.3,4.6-10.3,10.3
				C992.3,1023,996.9,1027.6,1002.6,1027.6z"/>
			<path class="st2" d="M949.5,1027.6L949.5,1027.6c5.7,0,10.3-4.6,10.3-10.3s-4.6-10.3-10.3-10.3h0c-5.7,0-10.3,4.6-10.3,10.3
				C939.2,1023,943.8,1027.6,949.5,1027.6z"/>
			<path class="st2" d="M1055.7,1027.6c2.7,0,5.4-1.1,7.3-3c1.9-1.9,3-4.6,3-7.3c0-2.7-1.1-5.4-3-7.3s-4.6-3-7.3-3
				c-2.7,0-5.4,1.1-7.3,3c-1.9,1.9-3,4.6-3,7.3c0,2.7,1.1,5.4,3,7.3C1050.4,1026.5,1053,1027.6,1055.7,1027.6"/>
			<path class="st2" d="M896.3,1069.9c2.7,0,5.4-1.1,7.3-3s3-4.6,3-7.3c0-2.7-1.1-5.4-3-7.3c-1.9-1.9-4.6-3-7.3-3
				c-2.7,0-5.4,1.1-7.3,3s-3,4.6-3,7.3c0,2.7,1.1,5.4,3,7.3C891,1068.8,893.6,1069.9,896.3,1069.9"/>
			<path class="st2" d="M1002.6,1069.9L1002.6,1069.9c5.7,0,10.3-4.6,10.3-10.3c0-5.7-4.6-10.3-10.3-10.3h0
				c-5.7,0-10.3,4.6-10.3,10.3S996.9,1069.9,1002.6,1069.9z"/>
			<path class="st2" d="M949.5,1069.9L949.5,1069.9c5.7,0,10.3-4.6,10.3-10.3c0-5.7-4.6-10.3-10.3-10.3h0c-5.7,0-10.3,4.6-10.3,10.3
				S943.8,1069.9,949.5,1069.9z"/>
			<path class="st2" d="M1055.7,1069.9c2.7,0,5.4-1.1,7.3-3s3-4.6,3-7.3c0-2.7-1.1-5.4-3-7.3s-4.6-3-7.3-3c-2.7,0-5.4,1.1-7.3,3
				s-3,4.6-3,7.3c0,2.7,1.1,5.4,3,7.3S1053,1069.9,1055.7,1069.9"/>
		</g>
	</g>
	<g>
		<rect x="650" y="216.7" class="st4" width="216.7" height="216.7"/>
		<g>
			<path class="st1" d="M679.7,293c2.7,0,5.4-1.1,7.3-3c1.9-1.9,3-4.6,3-7.3c0-2.7-1.1-5.4-3-7.3c-1.9-1.9-4.6-3-7.3-3
				c-2.7,0-5.4,1.1-7.3,3c-1.9,1.9-3,4.6-3,7.3c0,2.7,1.1,5.4,3,7.3C674.3,291.9,677,293,679.7,293"/>
			<path class="st1" d="M785.9,293L785.9,293c5.7,0,10.3-4.6,10.3-10.3s-4.6-10.3-10.3-10.3h0c-5.7,0-10.3,4.6-10.3,10.3
				C775.6,288.4,780.2,293,785.9,293z"/>
			<path class="st1" d="M732.8,293L732.8,293c5.7,0,10.3-4.6,10.3-10.3s-4.6-10.3-10.3-10.3h0c-5.7,0-10.3,4.6-10.3,10.3
				C722.5,288.4,727.1,293,732.8,293z"/>
			<path class="st1" d="M839.1,293c2.7,0,5.4-1.1,7.3-3c1.9-1.9,3-4.6,3-7.3c0-2.7-1.1-5.4-3-7.3c-1.9-1.9-4.6-3-7.3-3
				c-2.7,0-5.4,1.1-7.3,3c-1.9,1.9-3,4.6-3,7.3c0,2.7,1.1,5.4,3,7.3C833.7,291.9,836.4,293,839.1,293"/>
			<path class="st1" d="M679.7,250.6c2.7,0,5.4-1.1,7.3-3s3-4.6,3-7.3c0-2.7-1.1-5.4-3-7.3c-1.9-1.9-4.6-3-7.3-3
				c-2.7,0-5.4,1.1-7.3,3s-3,4.6-3,7.3c0,2.7,1.1,5.4,3,7.3C674.3,249.5,677,250.6,679.7,250.6"/>
			<path class="st1" d="M785.9,250.6L785.9,250.6c5.7,0,10.3-4.6,10.3-10.3S791.7,230,786,230h0c-5.7,0-10.3,4.6-10.3,10.3
				S780.2,250.6,785.9,250.6z"/>
			<path class="st1" d="M732.8,250.6L732.8,250.6c5.7,0,10.3-4.6,10.3-10.3s-4.6-10.3-10.3-10.3h0c-5.7,0-10.3,4.6-10.3,10.3
				S727.1,250.6,732.8,250.6z"/>
			<path class="st1" d="M839.1,250.6c2.7,0,5.4-1.1,7.3-3s3-4.6,3-7.3c0-2.7-1.1-5.4-3-7.3c-1.9-1.9-4.6-3-7.3-3
				c-2.7,0-5.4,1.1-7.3,3s-3,4.6-3,7.3c0,2.7,1.1,5.4,3,7.3C833.7,249.5,836.4,250.6,839.1,250.6"/>
			<path class="st1" d="M679.7,335.3c2.7,0,5.4-1.1,7.3-3c1.9-1.9,3-4.6,3-7.3c0-2.7-1.1-5.4-3-7.3c-1.9-1.9-4.6-3-7.3-3
				c-2.7,0-5.4,1.1-7.3,3c-1.9,1.9-3,4.6-3,7.3c0,2.7,1.1,5.4,3,7.3C674.3,334.2,677,335.3,679.7,335.3"/>
			<path class="st1" d="M785.9,335.3L785.9,335.3c5.7,0,10.3-4.6,10.3-10.3s-4.6-10.3-10.3-10.3h0c-5.7,0-10.3,4.6-10.3,10.3
				S780.2,335.3,785.9,335.3z"/>
			<path class="st1" d="M732.8,335.3L732.8,335.3c5.7,0,10.3-4.6,10.3-10.3s-4.6-10.3-10.3-10.3h0c-5.7,0-10.3,4.6-10.3,10.3
				S727.1,335.3,732.8,335.3z"/>
			<path class="st1" d="M839.1,335.3c2.7,0,5.4-1.1,7.3-3c1.9-1.9,3-4.6,3-7.3c0-2.7-1.1-5.4-3-7.3c-1.9-1.9-4.6-3-7.3-3
				c-2.7,0-5.4,1.1-7.3,3c-1.9,1.9-3,4.6-3,7.3c0,2.7,1.1,5.4,3,7.3C833.7,334.2,836.4,335.3,839.1,335.3"/>
			<path class="st1" d="M679.7,377.6c2.7,0,5.4-1.1,7.3-3c1.9-1.9,3-4.6,3-7.3c0-2.7-1.1-5.4-3-7.3c-1.9-1.9-4.6-3-7.3-3
				c-2.7,0-5.4,1.1-7.3,3c-1.9,1.9-3,4.6-3,7.3c0,2.7,1.1,5.4,3,7.3C674.3,376.5,677,377.6,679.7,377.6"/>
			<path class="st1" d="M785.9,377.6L785.9,377.6c5.7,0,10.3-4.6,10.3-10.3S791.7,357,786,357h0c-5.7,0-10.3,4.6-10.3,10.3
				C775.6,373,780.2,377.6,785.9,377.6z"/>
			<path class="st1" d="M732.8,377.6L732.8,377.6c5.7,0,10.3-4.6,10.3-10.3s-4.6-10.3-10.3-10.3h0c-5.7,0-10.3,4.6-10.3,10.3
				C722.5,373,727.1,377.6,732.8,377.6z"/>
			<path class="st1" d="M839.1,377.6c2.7,0,5.4-1.1,7.3-3c1.9-1.9,3-4.6,3-7.3c0-2.7-1.1-5.4-3-7.3c-1.9-1.9-4.6-3-7.3-3
				c-2.7,0-5.4,1.1-7.3,3c-1.9,1.9-3,4.6-3,7.3c0,2.7,1.1,5.4,3,7.3C833.7,376.5,836.4,377.6,839.1,377.6"/>
			<path class="st1" d="M679.7,419.9c2.7,0,5.4-1.1,7.3-3c1.9-1.9,3-4.6,3-7.3c0-2.7-1.1-5.4-3-7.3c-1.9-1.9-4.6-3-7.3-3
				c-2.7,0-5.4,1.1-7.3,3c-1.9,1.9-3,4.6-3,7.3c0,2.7,1.1,5.4,3,7.3C674.3,418.8,677,419.9,679.7,419.9"/>
			<path class="st1" d="M785.9,419.9L785.9,419.9c5.7,0,10.3-4.6,10.3-10.3s-4.6-10.3-10.3-10.3h0c-5.7,0-10.3,4.6-10.3,10.3
				C775.6,415.3,780.2,419.9,785.9,419.9z"/>
			<path class="st1" d="M732.8,419.9L732.8,419.9c5.7,0,10.3-4.6,10.3-10.3s-4.6-10.3-10.3-10.3h0c-5.7,0-10.3,4.6-10.3,10.3
				C722.5,415.3,727.1,419.9,732.8,419.9z"/>
			<path class="st1" d="M839.1,419.9c2.7,0,5.4-1.1,7.3-3c1.9-1.9,3-4.6,3-7.3c0-2.7-1.1-5.4-3-7.3c-1.9-1.9-4.6-3-7.3-3
				c-2.7,0-5.4,1.1-7.3,3c-1.9,1.9-3,4.6-3,7.3c0,2.7,1.1,5.4,3,7.3C833.7,418.8,836.4,419.9,839.1,419.9"/>
		</g>
	</g>
	<g>
		<path class="st4" d="M975,650L975,650c-59.8,0-108.3-48.5-108.3-108.3l0,0c0-59.8,48.5-108.3,108.3-108.3l0,0
			c59.8,0,108.3,48.5,108.3,108.3l0,0C1083.3,601.5,1034.8,650,975,650z"/>
		<path class="st2" d="M975,590L975,590c-26.7,0-48.3-21.6-48.3-48.3l0,0c0-26.7,21.6-48.3,48.3-48.3l0,0
			c26.7,0,48.3,21.6,48.3,48.3l0,0C1023.3,568.4,1001.7,590,975,590z"/>
	</g>
	<g>
		<path class="st4" d="M108.3,975L108.3,975c-29.9,0-54.2-24.2-54.2-54.2l0,0c0-29.9,24.2-54.2,54.2-54.2l0,0
			c29.9,0,54.2,24.2,54.2,54.2l0,0C162.5,950.7,138.2,975,108.3,975z"/>
		<path class="st1" d="M108.3,945L108.3,945c-13.3,0-24.2-10.8-24.2-24.2l0,0c0-13.3,10.8-24.2,24.2-24.2l0,0
			c13.3,0,24.2,10.8,24.2,24.2l0,0C132.5,934.2,121.7,945,108.3,945z"/>
		<path class="st4" d="M54.2,1083.3L54.2,1083.3c-29.9,0-54.2-24.2-54.2-54.2l0,0C0,999.2,24.2,975,54.2,975l0,0
			c29.9,0,54.2,24.2,54.2,54.2l0,0C108.3,1059.1,84.1,1083.3,54.2,1083.3z"/>
		<path class="st1" d="M54.2,1053.3L54.2,1053.3c-13.3,0-24.2-10.8-24.2-24.2l0,0c0-13.3,10.8-24.2,24.2-24.2l0,0
			c13.3,0,24.2,10.8,24.2,24.2l0,0C78.3,1042.5,67.5,1053.3,54.2,1053.3z"/>
		<path class="st4" d="M162.5,1083.3L162.5,1083.3c-29.9,0-54.2-24.2-54.2-54.2l0,0c0-29.9,24.2-54.2,54.2-54.2l0,0
			c29.9,0,54.2,24.2,54.2,54.2l0,0C216.7,1059.1,192.4,1083.3,162.5,1083.3z"/>
		<path class="st1" d="M162.5,1053.3L162.5,1053.3c-13.4,0-24.2-10.8-24.2-24.2l0,0c0-13.3,10.8-24.2,24.2-24.2l0,0
			c13.4,0,24.2,10.8,24.2,24.2l0,0C186.7,1042.5,175.9,1053.3,162.5,1053.3z"/>
	</g>
	<g>
		<path class="st1" d="M325,108.3L325,108.3c-29.9,0-54.2-24.2-54.2-54.2l0,0C270.8,24.2,295.1,0,325,0l0,0
			c29.9,0,54.2,24.2,54.2,54.2l0,0C379.2,84.1,354.9,108.3,325,108.3z"/>
		<path class="st3" d="M325,78.3L325,78.3c-13.4,0-24.2-10.8-24.2-24.2l0,0c0-13.3,10.8-24.2,24.2-24.2l0,0
			c13.4,0,24.2,10.8,24.2,24.2l0,0C349.2,67.5,338.4,78.3,325,78.3z"/>
		<path class="st1" d="M270.8,216.7L270.8,216.7c-29.9,0-54.2-24.2-54.2-54.2l0,0c0-29.9,24.2-54.2,54.2-54.2l0,0
			c29.9,0,54.2,24.2,54.2,54.2l0,0C325,192.4,300.8,216.7,270.8,216.7z"/>
		<path class="st3" d="M270.8,186.7L270.8,186.7c-13.4,0-24.2-10.8-24.2-24.2l0,0c0-13.4,10.8-24.2,24.2-24.2l0,0
			c13.4,0,24.2,10.8,24.2,24.2l0,0C295,175.8,284.2,186.7,270.8,186.7z"/>
		<path class="st1" d="M379.2,216.7L379.2,216.7c-29.9,0-54.2-24.2-54.2-54.2l0,0c0-29.9,24.2-54.2,54.2-54.2l0,0
			c29.9,0,54.2,24.2,54.2,54.2l0,0C433.3,192.4,409.1,216.7,379.2,216.7z"/>
		<path class="st3" d="M379.2,186.7L379.2,186.7c-13.4,0-24.2-10.8-24.2-24.2l0,0c0-13.4,10.8-24.2,24.2-24.2l0,0
			c13.4,0,24.2,10.8,24.2,24.2l0,0C403.3,175.8,392.5,186.7,379.2,186.7z"/>
	</g>
	<g>
		<path class="st1" d="M975,325L975,325c-29.9,0-54.2-24.2-54.2-54.2l0,0c0-29.9,24.2-54.2,54.2-54.2l0,0
			c29.9,0,54.2,24.2,54.2,54.2l0,0C1029.2,300.7,1004.9,325,975,325z"/>
		<path class="st3" d="M975,295L975,295c-13.3,0-24.2-10.8-24.2-24.2l0,0c0-13.4,10.8-24.2,24.2-24.2l0,0
			c13.3,0,24.2,10.8,24.2,24.2l0,0C999.2,284.2,988.3,295,975,295z"/>
		<path class="st1" d="M920.8,433.3L920.8,433.3c-29.9,0-54.2-24.2-54.2-54.2l0,0c0-29.9,24.2-54.2,54.2-54.2l0,0
			c29.9,0,54.2,24.2,54.2,54.2l0,0C975,409.1,950.8,433.3,920.8,433.3z"/>
		<path class="st3" d="M920.8,403.3L920.8,403.3c-13.3,0-24.2-10.8-24.2-24.2l0,0c0-13.4,10.8-24.2,24.2-24.2l0,0
			c13.3,0,24.2,10.8,24.2,24.2l0,0C945,392.5,934.2,403.3,920.8,403.3z"/>
		<path class="st1" d="M1029.2,433.3L1029.2,433.3c-29.9,0-54.2-24.2-54.2-54.2l0,0c0-29.9,24.2-54.2,54.2-54.2l0,0
			c29.9,0,54.2,24.2,54.2,54.2l0,0C1083.3,409.1,1059.1,433.3,1029.2,433.3z"/>
		<path class="st3" d="M1029.2,403.3L1029.2,403.3c-13.3,0-24.2-10.8-24.2-24.2l0,0c0-13.4,10.8-24.2,24.2-24.2l0,0
			c13.3,0,24.2,10.8,24.2,24.2l0,0C1053.3,392.5,1042.5,403.3,1029.2,403.3z"/>
	</g>
	<g>
		<rect x="1083.3" y="216.7" class="st3" width="216.7" height="216.7"/>
		<g>
			<rect x="1277.8" y="325.1" class="st2" width="0" height="72.3"/>
			<path class="st1" d="M1266.1,256.5c-6-10-17.6-16.2-30.2-16.2h-88.4c-12.6,0-24.1,6.2-30.2,16.2c-3.9,6.5-7.8,13-11.8,19.5v15
				v34.1v72.3v3.8c0,8.1,5.7,15,13.8,17.6c1.7,0.5,3.5,0.9,5.3,1c22.4,1.5,44.7,3.1,67.1,4.6c22.4-1.5,44.7-3.1,67.1-4.6
				c1.9-0.1,3.6-0.5,5.3-1c8.1-2.6,13.8-9.5,13.8-17.6v-3.8v-72.3V291v-15C1273.9,269.4,1270,263,1266.1,256.5z M1191.4,246.1
				c8.2,0,14.9,6.7,14.9,14.9c0,8.2-6.7,14.9-14.9,14.9s-14.9-6.7-14.9-14.9C1176.5,252.8,1183.1,246.1,1191.4,246.1z M1160.3,405.3
				c-11.4-11.5-22.9-22.9-34.3-34.4h34.3V405.3z M1153.3,359.2h-10.1l-5.9-68.3l0,0l-0.8-9.3h10.1h90.1h10.1l-0.8,9.3l-5.9,68.3
				H1230l0,0l0,0C1204.4,359.2,1178.9,359.2,1153.3,359.2z M1223,405.3V371h34.3C1245.9,382.4,1234.4,393.9,1223,405.3z"/>
			<path class="st5" d="M1230,359.2L1230,359.2L1230,359.2z"/>
			<polygon class="st2" points="1236.7,281.7 1146.6,281.7 1136.5,281.7 1137.3,291 1147.4,291 1222.9,291 1235.9,291 1235.9,291 
				1246.1,291 1246.9,281.7 			"/>
			<g>
				<path class="st5" d="M1143.2,359.2c32.3,0,64.7,0,97,0l5.9-68.3c-36.3,0-72.5,0-108.8,0C1139.2,313.7,1141.2,336.5,1143.2,359.2
					z"/>
			</g>
			<path class="st5" d="M1137.3,291l5.9,68.3L1137.3,291z"/>
			<rect x="1277.8" y="291" class="st2" width="0" height="34.1"/>
			<g>
				<path class="st2" d="M1191.7,424.4c-22.4-1.5-44.7-3.1-67.1-4.6c-1.9-0.1-3.6-0.5-5.3-1v9.1c1.7,0.5,3.5,0.9,5.3,1
					c22.4,1.5,44.7,3,67.1,4.4c22.4-1.5,44.7-3,67.1-4.4c1.8-0.1,3.6-0.5,5.3-1v-9.1c-1.7,0.5-3.5,0.9-5.3,1
					C1236.4,421.4,1214,422.9,1191.7,424.4z"/>
				<path class="st2" d="M1277.8,291v34.1h5.5c3.1,0,5.7-2.5,5.7-5.6V291H1277.8z"/>
				<path class="st2" d="M1094.3,319.4c0,3.1,2.5,5.6,5.7,5.6h5.5V291h-11.2V319.4z"/>
			</g>
			
				<ellipse transform="matrix(0.9284 -0.3715 0.3715 0.9284 -11.7233 461.2818)" class="st3" cx="1191.3" cy="261.1" rx="14.9" ry="14.9"/>
			<polygon class="st1" points="1236.5,221.6 1236.5,216.7 1146.2,216.7 1146.2,221.6 1146.2,226.5 1236.5,226.5 			"/>
			<path class="st3" d="M1160.3,405.3V371H1126C1137.4,382.4,1148.9,393.9,1160.3,405.3z"/>
			<path class="st3" d="M1223,405.3c11.4-11.5,22.9-22.9,34.3-34.4H1223V405.3z"/>
		</g>
	</g>
	<g>
		<rect x="433.3" y="650" class="st3" width="216.7" height="216.7"/>
		<g>
			<rect x="627.8" y="758.4" class="st2" width="0" height="72.3"/>
			<path class="st1" d="M616,689.8c-6-10-17.6-16.2-30.2-16.2h-88.5c-12.6,0-24.1,6.2-30.2,16.2c-3.9,6.5-7.8,13-11.8,19.5v15v34.1
				v72.3v3.8c0,8.1,5.7,15,13.8,17.6c1.7,0.5,3.5,0.9,5.3,1c22.4,1.5,44.7,3.1,67.1,4.6c22.4-1.5,44.7-3.1,67.1-4.6
				c1.9-0.1,3.6-0.5,5.3-1c8.1-2.6,13.8-9.5,13.8-17.6v-3.8v-72.3v-34.1v-15C623.9,702.8,620,696.3,616,689.8z M541.4,679.4
				c8.2,0,14.9,6.7,14.9,14.9s-6.7,14.9-14.9,14.9s-14.9-6.7-14.9-14.9S533.1,679.4,541.4,679.4z M510.4,838.7
				c-11.5-11.5-22.9-22.9-34.4-34.3h34.4V838.7z M503.3,792.6h-10.1l-5.9-68.3l0,0l-0.8-9.3h10.1h90.1h10.1l-0.8,9.3l-5.9,68.3H580
				l0,0l0,0C554.4,792.6,528.9,792.6,503.3,792.6z M573,838.7v-34.4h34.3C595.9,815.7,584.4,827.2,573,838.7z"/>
			<polygon class="st5" points="580,792.6 580,792.6 580,792.6 			"/>
			<polygon class="st2" points="586.7,715 496.6,715 486.5,715 487.3,724.3 497.4,724.3 573,724.3 585.9,724.3 585.9,724.3 
				596,724.3 596.9,715 			"/>
			<g>
				<path class="st5" d="M493.2,792.6c32.3,0,64.6,0,97,0l5.9-68.3c-36.3,0-72.5,0-108.8,0C489.2,747,491.2,769.8,493.2,792.6z"/>
			</g>
			<path class="st5" d="M487.3,724.3l5.9,68.3L487.3,724.3z"/>
			<rect x="627.8" y="724.3" class="st2" width="0" height="34.1"/>
			<g>
				<path class="st2" d="M541.7,857.8c-22.4-1.5-44.7-3.1-67.1-4.6c-1.9-0.1-3.6-0.5-5.3-1v9.1c1.7,0.5,3.5,0.8,5.3,1
					c22.4,1.5,44.7,3,67.1,4.4c22.4-1.5,44.7-3,67.1-4.4c1.8-0.1,3.6-0.5,5.3-1v-9.1c-1.7,0.5-3.5,0.9-5.3,1
					C586.4,854.7,564,856.2,541.7,857.8z"/>
				<path class="st2" d="M627.8,724.3v34.1h5.5c3.1,0,5.7-2.5,5.7-5.7v-28.5H627.8z"/>
				<path class="st2" d="M444.3,752.8c0,3.1,2.5,5.7,5.6,5.7h5.5v-34.1h-11.2V752.8z"/>
			</g>
			<ellipse class="st3" cx="541.3" cy="694.4" rx="14.9" ry="14.9"/>
			<polygon class="st1" points="586.5,654.9 586.5,650 496.2,650 496.2,654.9 496.2,659.8 586.5,659.8 			"/>
			<path class="st3" d="M510.4,838.7v-34.4H476C487.5,815.7,498.9,827.2,510.4,838.7z"/>
			<path class="st3" d="M573,838.7c11.5-11.5,22.9-22.9,34.3-34.3H573V838.7z"/>
		</g>
	</g>
	<g>
		<path class="st3" d="M146.6,503.4l-38.3-38.3L70,503.4c-23.3-23.3-46.7-46.7-70-70v108.3l0,0v54.2V650h216.7v-54.2l0,0v-54.2
			V433.3C193.3,456.7,170,480,146.6,503.4z"/>
		<rect y="595.8" class="st1" width="216.7" height="27.1"/>
		<g>
			<path class="st2" d="M31.7,583.7L31.7,583.7c-6.7,0-12.1-5.4-12.1-12.1l0,0c0-6.7,5.4-12.1,12.1-12.1l0,0
				c6.7,0,12.1,5.4,12.1,12.1l0,0C43.8,578.3,38.4,583.7,31.7,583.7z"/>
			<path class="st2" d="M108.3,583.7L108.3,583.7c-6.7,0-12.1-5.4-12.1-12.1l0,0c0-6.7,5.4-12.1,12.1-12.1l0,0
				c6.7,0,12.1,5.4,12.1,12.1l0,0C120.4,578.3,115,583.7,108.3,583.7z"/>
			<path class="st2" d="M184.9,583.7L184.9,583.7c-6.7,0-12.1-5.4-12.1-12.1l0,0c0-6.7,5.4-12.1,12.1-12.1l0,0
				c6.7,0,12.1,5.4,12.1,12.1l0,0C197,578.3,191.6,583.7,184.9,583.7z"/>
		</g>
	</g>
	<g>
		<path class="st3" d="M1270.8,886.7h-18.1h-18.1c0,0,0,0,0,0c-4.4,0-8.1-3.6-8.1-8.1v-12h-10v12c0,10,8.1,18.1,18.1,18.1
			c0,0,0,0,0,0h18.1h18.1c4.4,0,8.1,3.6,8.1,8.1l0,0v18v0v18h10v-18v0v-18C1288.9,894.8,1280.8,886.7,1270.8,886.7z"/>
		<g>
			<path class="st1" d="M1299.9,937.9c-0.5-8.4-7.5-15.1-16-15.1s-15.5,6.7-16,15.1h-0.1v10h-103.3c-9-3-18.1-6-27.1-9v9v9v18v0.1
				v18v18.1v36.1v18h13.5c4.5,6,9,12,13.5,18h83.3c19.9,0,36.1-16.2,36.1-36.1c-26.5,0-52.9-0.1-79.4-0.1c-9.9,0-18-8.1-18-18
				c0-9.9,8.1-18,18-18c31.8,0,63.7,0,95.5,0v-18.1v-18V975v-4.9l0,0L1299.9,937.9L1299.9,937.9L1299.9,937.9z"/>
		</g>
		<polygon class="st2" points="1083.3,938.9 1083.3,1011.1 1083.3,1083.3 1137.5,1083.3 1137.5,1011.1 1137.5,938.9 		"/>
		<polygon class="st1" points="1083.3,938.9 1083.3,1011.1 1083.3,1083.3 1096.9,1083.3 1096.9,1011.1 1096.9,938.9 		"/>
		<path class="st3" d="M1190.6,977.9L1190.6,977.9c-14.4,0-26.1-11.7-26.1-26l0,0c0-14.4,11.7-26,26.1-26l0,0
			c14.4,0,26.1,11.7,26.1,26l0,0C1216.7,966.3,1205,977.9,1190.6,977.9z"/>
		<path class="st2" d="M1190.6,963.5L1190.6,963.5c-6.4,0-11.6-5.2-11.6-11.6l0,0c0-6.4,5.2-11.6,11.6-11.6l0,0
			c6.4,0,11.6,5.2,11.6,11.6l0,0C1202.2,958.3,1197.1,963.5,1190.6,963.5z"/>
		<path class="st3" d="M1220.4,1011.1h-15.9c5.3,6,10.6,12,15.9,18c5.3-6,10.6-12,15.9-18L1220.4,1011.1L1220.4,1011.1z"/>
		<path class="st3" d="M1252.2,1011.1h-15.9c5.3,6,10.6,12,15.9,18c5.3-6,10.6-12,15.9-18L1252.2,1011.1L1252.2,1011.1z"/>
		<path class="st3" d="M1284.1,1011.1h-15.9c5.3,6,10.6,12,15.9,18c5.3-6,10.6-12,15.9-18L1284.1,1011.1L1284.1,1011.1z"/>
		<rect x="1137.5" y="1024.7" class="st4" width="13.5" height="13.5"/>
		<rect x="1137.5" y="997.6" class="st4" width="13.5" height="13.5"/>
		<rect x="1137.5" y="970.5" class="st4" width="13.5" height="13.5"/>
	</g>
	<g>
		<path class="st1" d="M812.5,54.2c-18.1,18.1-36.1,36.1-54.2,54.2h108.3C848.6,90.3,830.5,72.2,812.5,54.2z"/>
		<path class="st1" d="M704.2,162.5c18.1-18.1,36.1-36.1,54.2-54.2H650C668,126.4,686.1,144.4,704.2,162.5z"/>
		<path class="st1" d="M704.2,54.2C686.1,36.1,668,18.1,650,0v108.3C668,90.3,686.1,72.2,704.2,54.2z"/>
		<path class="st2" d="M704.2,54.2C686.1,72.2,668,90.3,650,108.3h108.3C740.3,90.3,722.2,72.2,704.2,54.2z"/>
		<path class="st3" d="M812.5,162.5c-18.1-18.1-36.1-36.1-54.2-54.2v108.3C776.4,198.6,794.4,180.5,812.5,162.5z"/>
		<path class="st2" d="M704.2,162.5c18.1,18.1,36.1,36.1,54.2,54.2V108.3C740.3,126.4,722.2,144.4,704.2,162.5z"/>
		<path class="st2" d="M812.5,54.2c18.1,18.1,36.1,36.1,54.2,54.2V0C848.6,18.1,830.5,36.1,812.5,54.2z"/>
		<path class="st2" d="M812.5,162.5c18.1-18.1,36.1-36.1,54.2-54.2H758.3C776.4,126.4,794.4,144.4,812.5,162.5z"/>
	</g>
	<g>
		<path class="st1" d="M1137.5,1245.8c18.1-18.1,36.1-36.1,54.2-54.2h-108.3C1101.4,1209.7,1119.4,1227.8,1137.5,1245.8z"/>
		<path class="st1" d="M1245.8,1137.5c-18.1,18.1-36.1,36.1-54.2,54.2H1300C1281.9,1173.6,1263.9,1155.6,1245.8,1137.5z"/>
		<path class="st1" d="M1245.8,1245.8c18.1,18.1,36.1,36.1,54.2,54.2v-108.3C1281.9,1209.7,1263.9,1227.8,1245.8,1245.8z"/>
		<path class="st2" d="M1245.8,1245.8c18.1-18.1,36.1-36.1,54.2-54.2h-108.3C1209.7,1209.7,1227.8,1227.8,1245.8,1245.8z"/>
		<path class="st3" d="M1137.5,1137.5c18.1,18.1,36.1,36.1,54.2,54.2v-108.3C1173.6,1101.4,1155.6,1119.4,1137.5,1137.5z"/>
		<path class="st2" d="M1245.8,1137.5c-18.1-18.1-36.1-36.1-54.2-54.2v108.3C1209.7,1173.6,1227.8,1155.6,1245.8,1137.5z"/>
		<path class="st2" d="M1137.5,1245.8c-18.1-18.1-36.1-36.1-54.2-54.2V1300C1101.4,1281.9,1119.4,1263.9,1137.5,1245.8z"/>
		<path class="st2" d="M1137.5,1137.5c-18.1,18.1-36.1,36.1-54.2,54.2h108.3C1173.6,1173.6,1155.6,1155.6,1137.5,1137.5z"/>
	</g>
	<g>
		<path class="st1" d="M595.8,1029.2c-18.1-18.1-36.1-36.1-54.2-54.2v108.3C559.7,1065.3,577.8,1047.2,595.8,1029.2z"/>
		<path class="st1" d="M487.5,920.8c18.1,18.1,36.1,36.1,54.2,54.2V866.7C523.6,884.7,505.5,902.8,487.5,920.8z"/>
		<path class="st1" d="M595.8,920.8c18.1-18.1,36.1-36.1,54.2-54.2H541.7C559.7,884.7,577.8,902.8,595.8,920.8z"/>
		<path class="st3" d="M595.8,920.8c-18.1-18.1-36.1-36.1-54.2-54.2V975C559.7,956.9,577.8,938.9,595.8,920.8z"/>
		<path class="st3" d="M487.5,1029.2c18.1-18.1,36.1-36.1,54.2-54.2H433.3C451.4,993,469.4,1011.1,487.5,1029.2z"/>
		<path class="st2" d="M487.5,920.8c-18.1,18.1-36.1,36.1-54.2,54.2h108.3C523.6,956.9,505.5,938.9,487.5,920.8z"/>
		<path class="st2" d="M595.8,1029.2c-18.1,18.1-36.1,36.1-54.2,54.2H650C631.9,1065.3,613.9,1047.2,595.8,1029.2z"/>
		<path class="st2" d="M487.5,1029.2c18.1-18.1,36.1-36.1,54.2-54.2v108.3C523.6,1065.3,505.5,1047.2,487.5,1029.2z"/>
	</g>
	<g>
		<rect x="216.7" y="1083.3" class="st2" width="216.7" height="216.7"/>
		<path class="st4" d="M216.7,1300L216.7,1300v-216.7h216.7l0,0C433.3,1203,336.3,1300,216.7,1300z"/>
		<path class="st1" d="M325,1083.3c0,59.8-48.5,108.3-108.3,108.3v-108.3H325z"/>
	</g>
	<g>
		<rect x="650" y="1083.3" class="st3" width="216.7" height="216.7"/>
		<path class="st1" d="M864,1300h2.7v-216.7H650v2.7C650,1204.2,745.8,1300,864,1300z"/>
		<path class="st2" d="M758.3,1083.3c0,59.8,48.5,108.3,108.3,108.3v-108.3H758.3z"/>
	</g>
	<g>
		<path class="st2" d="M0,1083.3L0,1083.3h216.7V1300l0,0C97,1300,0,1203,0,1083.3z"/>
		<path class="st3" d="M108.3,1083.3h108.3v108.3C156.8,1191.6,108.3,1143.1,108.3,1083.3z"/>
	</g>
	<g>
		<path class="st4" d="M1083.3,1083.3L1083.3,1083.3H866.7V1300l0,0C986.3,1300,1083.3,1203,1083.3,1083.3z"/>
		<path class="st3" d="M975,1083.3H866.7v108.3C926.5,1191.6,975,1143.1,975,1083.3z"/>
	</g>
	<path class="st3" d="M650,216.7L650,216.7c-119.7,0-216.7-97-216.7-216.7l0,0H650V216.7z"/>
	<path class="st4" d="M866.7,650.1L866.7,650.1c0,119.7-97,216.7-216.7,216.7l0,0V650.1H866.7z"/>
	<g>
		<polygon class="st2" points="611.8,1096.1 605.4,1089.7 599,1083.3 592.7,1089.7 586.3,1096.1 560.8,1121.5 535.3,1096.1 
			528.9,1089.7 522.5,1083.3 516.2,1089.7 509.8,1096.1 484.3,1121.5 446.1,1083.3 439.7,1089.7 433.3,1096.1 484.3,1147 
			522.5,1108.8 548,1134.3 554.4,1140.7 560.8,1147 599,1108.8 637.2,1147 643.6,1140.7 650,1134.3 		"/>
		<polygon class="st1" points="611.8,1172.5 605.4,1166.2 599,1159.8 592.7,1166.2 586.3,1172.5 560.8,1198 535.3,1172.5 
			528.9,1166.2 522.5,1159.8 516.2,1166.2 509.8,1172.5 484.3,1198 446.1,1159.8 439.7,1166.2 433.3,1172.5 484.3,1223.5 
			522.5,1185.3 548,1210.8 554.4,1217.1 560.8,1223.5 599,1185.3 637.2,1223.5 643.6,1217.1 650,1210.8 		"/>
		<polygon class="st2" points="611.8,1249 605.4,1242.6 599,1236.3 592.7,1242.6 586.3,1249 560.8,1274.5 535.3,1249 528.9,1242.6 
			522.5,1236.3 516.2,1242.6 509.8,1249 484.3,1274.5 446.1,1236.3 439.7,1242.6 433.3,1249 484.3,1300 522.5,1261.8 548,1287.2 
			554.4,1293.6 560.8,1300 599,1261.8 637.2,1300 643.6,1293.6 650,1287.2 		"/>
	</g>
	<g>
		<polygon class="st2" points="1045.1,12.7 1038.7,6.4 1032.3,0 1026,6.4 1019.6,12.7 994.1,38.2 968.6,12.7 962.2,6.4 955.9,0 
			949.5,6.4 943.1,12.7 917.6,38.2 879.4,0 873,6.4 866.7,12.7 917.6,63.7 955.9,25.5 981.4,51 987.7,57.3 994.1,63.7 1032.3,25.5 
			1070.6,63.7 1076.9,57.3 1083.3,51 		"/>
		<polygon class="st1" points="1045.1,89.2 1038.7,82.9 1032.3,76.5 1026,82.9 1019.6,89.2 994.1,114.7 968.6,89.2 962.2,82.9 
			955.9,76.5 949.5,82.9 943.1,89.2 917.6,114.7 879.4,76.5 873,82.9 866.7,89.2 917.6,140.2 955.9,102 981.4,127.5 987.7,133.8 
			994.1,140.2 1032.3,102 1070.6,140.2 1076.9,133.8 1083.3,127.5 		"/>
		<polygon class="st2" points="1045.1,165.7 1038.7,159.3 1032.3,152.9 1026,159.3 1019.6,165.7 994.1,191.2 968.6,165.7 
			962.2,159.3 955.9,152.9 949.5,159.3 943.1,165.7 917.6,191.2 879.4,152.9 873,159.3 866.7,165.7 917.6,216.7 955.9,178.4 
			981.4,203.9 987.7,210.3 994.1,216.7 1032.3,178.4 1070.6,216.7 1076.9,210.3 1083.3,203.9 		"/>
	</g>
	<g>
		<g>
			<polygon class="st2" points="1083.3,469.4 1083.3,487.5 1300,487.5 1300,469.4 1300,451.4 1083.3,451.4 			"/>
		</g>
		<g>
			<polygon class="st2" points="1083.3,541.7 1083.3,559.7 1300,559.7 1300,541.7 1300,523.6 1083.3,523.6 			"/>
		</g>
		<g>
			<polygon class="st2" points="1083.3,613.9 1083.3,631.9 1300,631.9 1300,613.9 1300,595.8 1083.3,595.8 			"/>
		</g>
		<g>
			<polygon class="st1" points="1137.5,650 1148.3,650 1148.3,433.3 1137.5,433.3 1126.7,433.3 1126.7,650 			"/>
		</g>
		<g>
			<polygon class="st1" points="1245.8,650 1256.7,650 1256.7,433.3 1245.8,433.3 1235,433.3 1235,650 			"/>
		</g>
	</g>
	<g>
		<g>
			<polygon class="st2" points="613.9,216.7 595.8,216.7 595.8,433.3 613.9,433.3 631.9,433.3 631.9,216.7 			"/>
		</g>
		<g>
			<polygon class="st2" points="541.7,216.7 523.6,216.7 523.6,433.3 541.7,433.3 559.7,433.3 559.7,216.7 			"/>
		</g>
		<g>
			<polygon class="st2" points="469.4,216.7 451.4,216.7 451.4,433.3 469.4,433.3 487.5,433.3 487.5,216.7 			"/>
		</g>
		<g>
			<polygon class="st1" points="433.3,270.8 433.3,281.7 650,281.7 650,270.8 650,260 433.3,260 			"/>
		</g>
		<g>
			<polygon class="st1" points="433.3,379.2 433.3,390 650,390 650,379.2 650,368.3 433.3,368.3 			"/>
		</g>
	</g>
	<g>
		<rect y="0" class="st2" width="216.7" height="216.7"/>
		<rect y="216.7" class="st2" width="216.7" height="216.7"/>
		<g>
			<path class="st3" d="M108.3,175.1c-22.9,0-41.6,18.6-41.6,41.6s18.6,41.6,41.6,41.6s41.6-18.6,41.6-41.6S131.2,175.1,108.3,175.1
				z M108.3,243.7c-15,0-27.1-12.1-27.1-27.1s12.1-27.1,27.1-27.1s27.1,12.1,27.1,27.1C135.4,231.6,123.3,243.7,108.3,243.7z"/>
			<circle class="st3" cx="108.3" cy="216.7" r="13.5"/>
			<path class="st3" d="M57.3,209.9h-3.2H27.1c-7.4,0-13.5-6.1-13.5-13.5c0-7.5,6.1-13.5,13.5-13.5s13.5,6.1,13.5,13.5h13.5
				c0-15-12.1-27.1-27.1-27.1S0,181.4,0,196.4s12.1,27.1,27.1,27.1H56h1.4c-0.3-2.2-0.5-4.5-0.5-6.8
				C56.9,214.4,57.1,212.1,57.3,209.9z"/>
			<path class="st3" d="M77.1,175.8l-2.3-2.3l-19.2-19.1c-5.2-5.2-5.2-13.9,0-19.1c5.3-5.3,13.9-5.3,19.2,0s5.3,13.9,0,19.1l9.6,9.6
				c10.6-10.6,10.6-27.7,0-38.3s-27.7-10.6-38.3,0s-10.6,27.7,0,38.3l20.4,20.4l1,1C70.3,181.8,73.5,178.6,77.1,175.8z"/>
			<path class="st3" d="M159.3,223.4h1.4h28.9c15,0,27.1-12.1,27.1-27.1c0-14.9-12.1-27.1-27.1-27.1s-27.1,12.1-27.1,27.1H176
				c0-7.5,6.1-13.5,13.5-13.5s13.5,6.1,13.5,13.5c0,7.4-6.1,13.5-13.5,13.5h-27.1h-3.2c0.3,2.2,0.4,4.5,0.4,6.8
				C159.8,219,159.6,221.2,159.3,223.4z"/>
			<path class="st3" d="M139.6,257.5l1,1l20.4,20.4c10.6,10.6,27.7,10.6,38.3,0c10.6-10.6,10.6-27.7,0-38.3
				c-10.6-10.6-27.7-10.6-38.3,0l9.6,9.6c5.3-5.3,13.9-5.3,19.1,0s5.3,13.9,0,19.1c-5.2,5.2-13.9,5.2-19.1,0l-19.1-19.1l-2.3-2.3
				C146.4,251.5,143.2,254.7,139.6,257.5z"/>
			<path class="st3" d="M149.1,185.4l1-1l20.4-20.4c10.6-10.6,10.6-27.7,0-38.3c-10.6-10.6-27.7-10.6-38.3,0
				c-10.6,10.6-10.6,27.7,0,38.3l9.6-9.6c-5.3-5.3-5.3-13.9,0-19.1s13.9-5.3,19.1,0c5.2,5.2,5.2,13.9,0,19.1l-19.1,19.1l-2.3,2.3
				C143.2,178.6,146.4,181.8,149.1,185.4z"/>
			<path class="st3" d="M67.5,247.9l-2.3,2.3l-19.2,19.2c-5.2,5.2-13.9,5.2-19.1,0c-5.3-5.3-5.3-13.9,0-19.1s13.9-5.3,19.1,0
				l9.6-9.6c-10.6-10.6-27.7-10.6-38.3,0s-10.6,27.7,0,38.3c10.6,10.6,27.7,10.6,38.3,0l20.4-20.4l1-1
				C73.5,254.7,70.3,251.5,67.5,247.9z"/>
			<rect x="88" y="25.3" class="st3" width="13.5" height="63.4"/>
			<path class="st3" d="M108.3,421.6c-3.6-9.5-7.2-19-10.9-28.4c3.6-9.5,7.2-19,10.9-28.4c3.6,9.5,7.2,19,10.9,28.4
				C115.5,402.6,111.9,412.1,108.3,421.6z"/>
			<path class="st3" d="M127.4,264.4c-4.9,2-10.1,3.2-15.6,3.5l23.3,23.3l-26.8,46.4l-26.8-46.4l23.3-23.3
				c-5.5-0.4-10.7-1.6-15.6-3.5L64.6,289l0,0l43.7,75.7L152,289l0,0L127.4,264.4z"/>
			<g>
				<path class="st3" d="M57.8,313.6L57.8,313.6c-2.9,1.7-6.6,0.7-8.3-2.2l0,0c-1.7-2.9-0.7-6.6,2.2-8.3l0,0
					c2.9-1.7,6.6-0.7,8.3,2.2l0,0C61.7,308.2,60.7,311.9,57.8,313.6z"/>
				<path class="st3" d="M69.9,334.5L69.9,334.5c-2.9,1.7-6.6,0.7-8.3-2.2l0,0c-1.7-2.9-0.7-6.6,2.2-8.3l0,0
					c2.9-1.7,6.6-0.7,8.3,2.2l0,0C73.8,329.2,72.8,332.9,69.9,334.5z"/>
				<path class="st3" d="M82,355.5L82,355.5c-2.9,1.7-6.6,0.7-8.3-2.2l0,0c-1.7-2.9-0.7-6.6,2.2-8.3l0,0c2.9-1.7,6.6-0.7,8.3,2.2
					l0,0C85.9,350.1,84.9,353.8,82,355.5z"/>
			</g>
			<g>
				<path class="st3" d="M158.8,313.6L158.8,313.6c2.9,1.7,6.6,0.7,8.3-2.2l0,0c1.7-2.9,0.7-6.6-2.2-8.3l0,0
					c-2.9-1.7-6.6-0.7-8.3,2.2l0,0C154.9,308.2,155.9,311.9,158.8,313.6z"/>
				<path class="st3" d="M146.7,334.5L146.7,334.5c2.9,1.7,6.6,0.7,8.3-2.2l0,0c1.7-2.9,0.7-6.6-2.2-8.3l0,0
					c-2.9-1.7-6.6-0.7-8.3,2.2l0,0C142.8,329.2,143.8,332.9,146.7,334.5z"/>
				<path class="st3" d="M134.6,355.5L134.6,355.5c2.9,1.7,6.6,0.7,8.3-2.2l0,0c1.7-2.9,0.7-6.6-2.2-8.3l0,0
					c-2.9-1.7-6.6-0.7-8.3,2.2l0,0C130.7,350.1,131.7,353.8,134.6,355.5z"/>
			</g>
			<path class="st6" d="M108.3,233.9c9.5,0,17.2-7.7,17.2-17.2"/>
			<path class="st3" d="M101.5,25.3H88V11.7C92.5,16.2,97,20.8,101.5,25.3z"/>
			<path class="st3" d="M88,102.2h13.5v13.5C97,111.3,92.5,106.8,88,102.2z"/>
			<rect x="115.1" y="25.3" class="st3" width="13.5" height="63.4"/>
			<path class="st3" d="M115.1,25.3h13.5V11.7C124.1,16.2,119.6,20.8,115.1,25.3z"/>
			<rect x="88" y="88.7" class="st3" width="13.5" height="13.5"/>
			<rect x="115.1" y="88.7" class="st3" width="13.5" height="13.5"/>
			<g>
				<path class="st3" d="M112.4,118.5l-4.1-4.1l-4.1,4.1l-2.7-2.7v49.9c2.2-0.3,4.5-0.5,6.8-0.5c2.3,0,4.6,0.2,6.8,0.5v-49.9
					L112.4,118.5z"/>
				<polygon class="st3" points="97.6,92.7 88,102.2 101.5,115.8 101.5,96.6 				"/>
				<polygon class="st3" points="128.6,102.2 119,92.7 115.1,96.6 115.1,115.8 				"/>
				<polygon class="st3" points="108.3,114.4 112.4,118.5 115.1,115.8 115.1,96.6 108.3,103.4 101.5,96.6 101.5,115.8 104.2,118.5 
									"/>
			</g>
			<circle class="st3" cx="128.6" cy="31.3" r="6.1"/>
			<circle class="st3" cx="128.6" cy="55.5" r="6.1"/>
			<circle class="st3" cx="128.6" cy="79.7" r="6.1"/>
			<circle class="st3" cx="88" cy="31.3" r="6.1"/>
			<circle class="st3" cx="88" cy="55.5" r="6.1"/>
			<circle class="st3" cx="88" cy="79.7" r="6.1"/>
		</g>
	</g>
	<g>
		<rect x="1083.3" y="650" class="st3" width="216.7" height="216.7"/>
		<g>
			<polygon class="st1" points="1218.8,650 1137.5,866.7 1300,866.7 			"/>
			<polygon class="st2" points="1164.6,704.2 1083.3,866.7 1245.8,866.7 			"/>
		</g>
	</g>
	<g>
		<polygon class="st2" points="138.5,792.1 108.3,792.1 78.2,792.1 78.2,852.4 108.3,852.4 138.5,852.4 138.5,852.4 		"/>
		<path class="st2" d="M181.9,699.6c-1.6-5.1-3.4-9.7-5.2-13.8c-8.4-5.7-16.7-11.4-25.1-17.1c-5.7-0.7-11.4-1.4-17.1-2.2
			c-8.7-5.5-17.4-11-26.1-16.5c-6.8,7.4-13.7,14.8-20.6,22.2c-5.5-1.4-11-2.8-16.5-4.2c-11.9,9.7-23.8,19.3-35.7,29
			c-0.3,0.8-0.5,1.7-0.8,2.5c-1.3,7.6-2.6,15.2-3.8,22.9c25.8,4.4,51.5,8.9,77.3,13.3c26.1-4.4,52.3-8.9,78.4-13.3
			C185.9,715.8,184.5,708.1,181.9,699.6z"/>
		<polygon class="st4" points="204,788.9 204,795.9 189.3,795.9 189.3,808.6 204,808.6 204,815.7 216.7,815.7 216.7,788.9 		"/>
		<polygon class="st4" points="12.7,788.9 0,788.9 0,815.7 12.7,815.7 12.7,808.6 27.4,808.6 27.4,795.9 12.7,795.9 		"/>
		<rect x="22" y="719.5" class="st3" width="172.7" height="109"/>
		<rect x="68.7" y="719.5" class="st1" width="12.7" height="102.7"/>
		<rect x="135.3" y="719.5" class="st1" width="12.7" height="102.7"/>
		<path class="st4" d="M151.2,815.9c-14,0-25.4,11.4-25.4,25.4s11.4,25.4,25.4,25.4s25.4-11.4,25.4-25.4
			C176.6,827.3,165.2,815.9,151.2,815.9z M163.9,841.3c0,0.2,0,0.4,0,0.5c-0.2,5.8-4.3,10.5-9.7,11.8c-0.9,0.2-1.9,0.4-2.9,0.4
			c-0.9,0-1.7-0.1-2.6-0.3c-5.8-1.2-10.1-6.3-10.1-12.4c0-7,5.7-12.7,12.7-12.7C158.2,828.6,163.9,834.3,163.9,841.3L163.9,841.3
			L163.9,841.3z"/>
		<path class="st4" d="M65.5,815.9c-14,0-25.4,11.4-25.4,25.4s11.4,25.4,25.4,25.4s25.4-11.4,25.4-25.4S79.5,815.9,65.5,815.9z
			 M78.2,841.3c0,0.2,0,0.4,0,0.6c-0.2,5.5-3.9,10-8.9,11.6c-1.2,0.4-2.4,0.6-3.8,0.6c-1.3,0-2.6-0.2-3.8-0.6
			c-4.4-1.4-7.7-5-8.7-9.6c-0.2-0.8-0.3-1.7-0.3-2.6c0-0.5,0-1.1,0.1-1.6c0.8-6.2,6.1-11.1,12.6-11.1
			C72.5,828.6,78.2,834.3,78.2,841.3L78.2,841.3L78.2,841.3z"/>
	</g>
</g>
</svg>
